<mxfile host="app.diagrams.net" modified="2021-04-06T01:59:15.366Z" agent="5.0 (Macintosh; Intel Mac OS X 10_11_6) AppleWebKit/537.36 (KHTML, like Gecko) Chrome/89.0.4389.114 Safari/537.36" etag="ItuFEKKJW3Wl56xoe8ab" version="14.5.6" type="github">
  <diagram id="Xjajh6PyF_--wuyvjVOl" name="Page-1">
    <mxGraphModel dx="2066" dy="1130" grid="1" gridSize="10" guides="1" tooltips="1" connect="1" arrows="1" fold="1" page="1" pageScale="3" pageWidth="827" pageHeight="1169" math="0" shadow="0">
      <root>
        <mxCell id="0" />
        <mxCell id="1" parent="0" />
        <mxCell id="WqFntXkbbm4SxVUoHO8X-4" value="" style="edgeStyle=orthogonalEdgeStyle;rounded=0;orthogonalLoop=1;jettySize=auto;html=1;entryX=0;entryY=0.5;entryDx=0;entryDy=0;fontSize=18;" edge="1" parent="1" source="WqFntXkbbm4SxVUoHO8X-1" target="WqFntXkbbm4SxVUoHO8X-3">
          <mxGeometry relative="1" as="geometry" />
        </mxCell>
        <mxCell id="WqFntXkbbm4SxVUoHO8X-6" value="try成功则confirm必定成功" style="edgeLabel;html=1;align=center;verticalAlign=middle;resizable=0;points=[];fontSize=18;" vertex="1" connectable="0" parent="WqFntXkbbm4SxVUoHO8X-4">
          <mxGeometry x="0.1699" y="-2" relative="1" as="geometry">
            <mxPoint as="offset" />
          </mxGeometry>
        </mxCell>
        <mxCell id="WqFntXkbbm4SxVUoHO8X-5" value="Try失败则进入cancel阶段" style="edgeStyle=orthogonalEdgeStyle;rounded=0;orthogonalLoop=1;jettySize=auto;html=1;entryX=0;entryY=0.5;entryDx=0;entryDy=0;fontSize=18;" edge="1" parent="1" source="WqFntXkbbm4SxVUoHO8X-1" target="WqFntXkbbm4SxVUoHO8X-2">
          <mxGeometry relative="1" as="geometry" />
        </mxCell>
        <mxCell id="WqFntXkbbm4SxVUoHO8X-1" value="Try" style="rounded=1;whiteSpace=wrap;html=1;fontSize=18;fontStyle=1;fillColor=#fff2cc;strokeColor=#d6b656;" vertex="1" parent="1">
          <mxGeometry x="560" y="300" width="120" height="60" as="geometry" />
        </mxCell>
        <mxCell id="WqFntXkbbm4SxVUoHO8X-14" style="edgeStyle=orthogonalEdgeStyle;rounded=0;orthogonalLoop=1;jettySize=auto;html=1;entryX=0.5;entryY=1;entryDx=0;entryDy=0;entryPerimeter=0;fontSize=21;fontColor=#7F00FF;" edge="1" parent="1" source="WqFntXkbbm4SxVUoHO8X-2" target="WqFntXkbbm4SxVUoHO8X-12">
          <mxGeometry relative="1" as="geometry" />
        </mxCell>
        <mxCell id="WqFntXkbbm4SxVUoHO8X-2" value="Cancel" style="rounded=1;whiteSpace=wrap;html=1;fontSize=18;fontStyle=1;fillColor=#f8cecc;strokeColor=#b85450;" vertex="1" parent="1">
          <mxGeometry x="1150" y="460" width="120" height="60" as="geometry" />
        </mxCell>
        <mxCell id="WqFntXkbbm4SxVUoHO8X-13" style="edgeStyle=orthogonalEdgeStyle;rounded=0;orthogonalLoop=1;jettySize=auto;html=1;entryX=0.5;entryY=0;entryDx=0;entryDy=0;entryPerimeter=0;fontSize=21;fontColor=#7F00FF;" edge="1" parent="1" source="WqFntXkbbm4SxVUoHO8X-3" target="WqFntXkbbm4SxVUoHO8X-12">
          <mxGeometry relative="1" as="geometry" />
        </mxCell>
        <mxCell id="WqFntXkbbm4SxVUoHO8X-3" value="Confirm" style="rounded=1;whiteSpace=wrap;html=1;fontSize=18;fontStyle=1;fillColor=#dae8fc;strokeColor=#6c8ebf;" vertex="1" parent="1">
          <mxGeometry x="1150" y="170" width="120" height="60" as="geometry" />
        </mxCell>
        <mxCell id="WqFntXkbbm4SxVUoHO8X-7" value="&lt;span style=&quot;background-color: rgb(255 , 255 , 255)&quot;&gt;锁定资源，检查是否成功&lt;/span&gt;" style="text;html=1;strokeColor=none;fillColor=none;align=center;verticalAlign=middle;whiteSpace=wrap;rounded=0;fontSize=18;" vertex="1" parent="1">
          <mxGeometry x="440" y="380" width="330" height="30" as="geometry" />
        </mxCell>
        <mxCell id="WqFntXkbbm4SxVUoHO8X-8" value="TCC基本逻辑" style="text;html=1;strokeColor=none;fillColor=none;align=center;verticalAlign=middle;whiteSpace=wrap;rounded=0;fontSize=21;fontColor=#7F00FF;" vertex="1" parent="1">
          <mxGeometry x="500" y="110" width="170" height="20" as="geometry" />
        </mxCell>
        <mxCell id="WqFntXkbbm4SxVUoHO8X-9" value="回滚资源" style="text;html=1;strokeColor=none;fillColor=none;align=center;verticalAlign=middle;whiteSpace=wrap;rounded=0;fontSize=18;" vertex="1" parent="1">
          <mxGeometry x="1130" y="540" width="140" height="30" as="geometry" />
        </mxCell>
        <mxCell id="WqFntXkbbm4SxVUoHO8X-11" style="edgeStyle=orthogonalEdgeStyle;rounded=0;orthogonalLoop=1;jettySize=auto;html=1;entryX=0;entryY=0.5;entryDx=0;entryDy=0;fontSize=21;fontColor=#7F00FF;" edge="1" parent="1" source="WqFntXkbbm4SxVUoHO8X-10" target="WqFntXkbbm4SxVUoHO8X-1">
          <mxGeometry relative="1" as="geometry" />
        </mxCell>
        <mxCell id="WqFntXkbbm4SxVUoHO8X-10" value="&lt;font color=&quot;#000000&quot;&gt;Start&lt;/font&gt;" style="strokeWidth=2;html=1;shape=mxgraph.flowchart.start_1;whiteSpace=wrap;fontSize=21;fillColor=#ffe6cc;strokeColor=#d79b00;" vertex="1" parent="1">
          <mxGeometry x="300" y="300" width="100" height="60" as="geometry" />
        </mxCell>
        <mxCell id="WqFntXkbbm4SxVUoHO8X-12" value="&lt;font color=&quot;#0a0a0a&quot;&gt;end&lt;/font&gt;" style="strokeWidth=2;html=1;shape=mxgraph.flowchart.start_1;whiteSpace=wrap;fontSize=21;fillColor=#ffe6cc;strokeColor=#d79b00;" vertex="1" parent="1">
          <mxGeometry x="1510" y="300" width="110" height="60" as="geometry" />
        </mxCell>
      </root>
    </mxGraphModel>
  </diagram>
</mxfile>
